<?xml version="1.0" encoding="utf-8"?>
<!-- Generator: Adobe Illustrator 18.1.0, SVG Export Plug-In . SVG Version: 6.00 Build 0)  -->
<!DOCTYPE svg PUBLIC "-//W3C//DTD SVG 1.1//EN" "http://www.w3.org/Graphics/SVG/1.1/DTD/svg11.dtd">
<svg version="1.1" id="Layer_1" xmlns="http://www.w3.org/2000/svg" xmlns:xlink="http://www.w3.org/1999/xlink" x="0px" y="0px"
	 viewBox="158.214 244.587 296.984 303.884" enable-background="new 158.214 244.587 296.984 303.884" xml:space="preserve">
<g>
	<rect x="165.178" y="478.246" fill="#00AEEF" width="283.054" height="63.26"/>
	<g>
		<rect x="158.214" y="244.587" fill="#FFFFFF" width="296.984" height="233.659"/>
		<g>
			<g>
				<path fill="#00AEEF" d="M306.691,277.722c58.202,0,109.813,28.66,141.54,72.606v-98.766H165.188v98.729
					C196.885,306.375,248.502,277.722,306.691,277.722z"/>
				<path fill="#00AEEF" d="M306.691,284.698c-58.928,0-110.952,30.114-141.504,75.759v110.809h283.044V360.495
					C417.681,314.83,365.639,284.698,306.691,284.698z"/>
				<path fill="#FFFFFF" d="M306.691,284.698c58.947,0,110.989,30.132,141.54,75.797v-10.166
					c-31.727-43.946-83.338-72.606-141.54-72.606c-58.189,0-109.807,28.652-141.504,72.57v10.164
					C195.739,314.812,247.764,284.698,306.691,284.698z"/>
			</g>
			<g>
				<path fill="#FFFFFF" d="M193.065,400.961c-0.597,1.168-1.036,2.254-1.396,3.305c-11.376,3.4-18.953,0.381-19.458,0.162
					c-1.132-0.471-2.443,0.053-2.916,1.184c-0.491,1.137,0.028,2.432,1.168,2.916c0.536,0.242,8.417,3.465,20.188,0.627
					c-0.003,0.148-0.029,0.314-0.029,0.461c0,3.311,1.394,5.566,3.22,6.75c5.111,3.334,16.362,0.49,32.688-16.178
					c-1.054,3.012-2.001,6.307-2.608,9.721c-0.023,0.146-0.033,0.301-0.033,0.436c0,0.938,0.551,1.787,1.427,2.135
					c1.764,0.717,2.778-0.75,3.672-2.029l2.263-3.373c1.962-2.949,6.368-9.586,9.357-13.055c-0.364,1.906-0.73,4.059-0.73,6.098
					c0,2.756,0.667,5.279,2.896,6.584c1.869,1.082,4.86,1.469,11.351-2.4c0.544,1.502,1.644,2.213,2.275,2.51
					c4.145,1.922,11.955-2.234,20.106-10.031c-1.101,2.466-1.94,4.519-2.159,5.38c-0.053,0.238-0.075,0.467-0.075,0.672
					c0,1.035,0.627,1.783,1.351,2.113c1.792,0.789,2.931-0.781,3.831-2.062l2.457-3.551c2.04-3.009,6.832-10.06,9.632-12.988
					c0.83,2.027,2.307,4.586,4.966,6.077c-0.772,1.748-1.161,3.259-1.161,4.523c0,1.557,0.585,2.733,1.753,3.528
					c2.096,1.426,5.278,0.643,8.596-1.162c-10.589,10.508-15.459,20.975-15.612,25.621c-0.005,0.086-0.005,0.18-0.005,0.266
					c0,2.59,1.272,3.629,2.057,4.018c1.607,0.807,3.569,0.305,5.847-1.496c7.976-6.336,13.781-21.365,16.748-30.564
					c3.978-3.242,8.637-6.399,13.985-9.283c-1.736,3.047-2.72,5.927-2.72,8.258c0,0.84,0.127,1.617,0.369,2.296
					c0.614,1.631,1.933,2.674,3.61,2.846c3.679,0.402,8.768-3.453,14.77-10.858c-0.512,1.472-1.021,2.901-1.526,4.303
					c-16.664,13.129-24.156,27.17-25.115,34.786c-0.086,0.621-0.129,1.191-0.129,1.721c0,3.035,1.224,4.441,2.348,5.08
					c1.268,0.721,3.424,1.066,6.59-1.355c3.525-2.691,11.934-15.867,20.074-37.574c10.81-8.302,25.625-16.247,45.334-21.693
					c0.987-0.279,1.646-1.173,1.646-2.163c0-0.189-0.034-0.394-0.085-0.585c-0.332-1.195-1.561-1.885-2.763-1.56
					c-17.21,4.771-30.846,11.437-41.497,18.66c1.27-3.767,2.532-7.751,3.759-11.941c0.061-0.209,0.087-0.415,0.087-0.629
					c0-0.854-0.5-1.666-1.313-2.032c-1.015-0.454-2.207-0.092-2.797,0.838c-11.105,17.44-17.396,20.606-18.783,20.579
					c-0.08-0.152-0.136-0.368-0.136-0.682c0-1.988,1.704-6.956,7.199-12.778c0.391-0.423,0.614-0.974,0.614-1.532
					c0-0.444-0.146-0.889-0.411-1.272c-0.609-0.859-1.733-1.192-2.702-0.784c-7.012,2.967-13.055,6.478-18.31,10.2
					c0.056-0.212,0.103-0.377,0.114-0.447c0.039-0.185,0.083-0.359,0.083-0.541c0-0.813-0.467-1.588-1.212-1.972
					c-0.046-0.017-0.078-0.017-0.119-0.034c1.534-1.207,3.115-2.535,4.778-4.069c1.751-1.634,2.202-3.11,2.202-4.21
					c0-0.48-0.09-0.879-0.191-1.192c-0.515-1.578-1.975-2.617-3.978-2.857c-4.931-0.575-12.739,3.603-19.739,13.902
					c-2.387-1.277-3.321-4.395-3.754-5.819l-0.175-0.568c-0.289-0.935-1.139-1.521-2.127-1.516
					c-1.508,0.018-3.135,1.059-5.677,4.046c0.034-0.068,0.068-0.146,0.112-0.204c0.143-0.312,0.206-0.642,0.206-0.969
					c0-0.761-0.389-1.493-1.071-1.911c-0.99-0.593-2.263-0.343-2.944,0.575c-12.439,16.751-23.329,21.406-25.033,20.558
					c-0.012-0.051-0.051-0.17-0.051-0.457c0-0.189,0.034-0.465,0.09-0.791c2.782-1.988,6.062-4.586,9.95-7.966
					c3.603-3.13,4.431-5.659,4.431-7.33c0-0.763-0.177-1.338-0.33-1.714c-0.738-1.725-2.516-2.681-4.664-2.491
					c-4.616,0.398-10.385,5.801-13.289,16.794c-7.211,4.924-9.158,4.176-9.42,4.023c-0.981-0.564-0.903-3.652,0.216-9.171
					c0.488-2.452,0.716-3.566,0.165-4.586c-0.537-1.003-1.472-1.598-2.564-1.646c-2.343-0.114-4.999,2.341-10.516,10.142
					c2.188-5.199,4.319-8.768,4.361-8.821c0.221-0.367,0.322-0.763,0.322-1.158c0-0.699-0.325-1.389-0.944-1.828
					c-0.946-0.678-2.263-0.496-3.016,0.415c-19.618,23.947-32.957,28.925-36.765,26.449c-0.813-0.535-1.209-1.572-1.209-2.961
					c0-0.574,0.092-1.221,0.229-1.91c7.347-2.615,15.838-7.637,24.831-16.853c5.308-5.424,8.155-10.514,8.155-14.379
					c0-0.871-0.141-1.675-0.432-2.408c-0.787-2.006-2.601-3.229-4.961-3.351C215.846,370.448,203.895,379.645,193.065,400.961z
					 M222.683,375.236c0.828,0.043,0.959,0.364,1.027,0.52c0.067,0.201,0.118,0.469,0.118,0.776c0,1.942-1.701,5.956-6.893,11.267
					c-6.954,7.123-13.531,11.547-19.399,14.233C207.853,382.174,218.393,375.034,222.683,375.236z M266.676,386.943
					c0.73-0.391,1.248-0.473,1.551-0.473c-0.113,0.529-0.682,1.818-2.862,3.725c-1.624,1.4-3.122,2.666-4.496,3.782
					C263.138,389.211,265.724,387.441,266.676,386.943z M316.188,379.268c0.815-0.189,1.374-0.194,1.731-0.147
					c-0.119,0.152-0.248,0.325-0.491,0.539c-5.125,4.754-9.637,7.781-13.21,8.954C309.812,381.354,314.657,379.632,316.188,379.268z
					 M309.454,391.195c-4.321,3.821-8.252,5.582-9.644,5.587c0.017-0.42,0.204-1.392,1.07-3.195
					C303.428,393.681,306.278,392.899,309.454,391.195z M307.724,403.547c-3.035,7.807-7.338,16.564-12.52,20.672
					c-0.255,0.203-0.471,0.361-0.655,0.49C294.782,421.482,298.728,412.814,307.724,403.547z M322.444,431.215
					c0-1.025,0.23-2.668,1.065-5.027c2.047-5.848,7.178-14.168,16.266-22.688c-6.837,16.404-13.237,26.105-15.583,27.924
					c-0.768,0.576-1.304,0.834-1.59,0.918C322.518,432.139,322.444,431.805,322.444,431.215z"/>
				<path fill="#FFFFFF" d="M386.34,325.459c-1.384,0-2.612,0.837-3.123,2.126c0,0-12.251,31.424-13.657,35.013
					c-3.844,0.211-37.354,1.979-37.354,1.979c-1.777,0.095-3.171,1.571-3.171,3.334c0,0.056,0.01,0.118,0.01,0.18
					c0.095,1.838,1.663,3.251,3.521,3.163l39.506-2.095c1.304-0.063,2.46-0.901,2.94-2.12c0,0,7.48-19.22,11.321-29.049
					c3.819,9.812,11.269,28.933,11.269,28.933c0.474,1.219,1.617,2.042,2.911,2.122c0,0,20.4,1.168,30.826,1.772
					c-8.039,6.674-23.809,19.785-23.809,19.785c-0.785,0.644-1.22,1.581-1.22,2.564c0,0.281,0.034,0.559,0.103,0.828
					c0,0,5.062,19.791,7.672,29.935c-8.781-5.662-25.89-16.703-25.89-16.703c-1.09-0.711-2.51-0.711-3.605-0.018
					c0,0-17.297,11.018-26.256,16.711c2.733-9.854,7.643-27.59,7.643-27.59c0.063-0.291,0.109-0.6,0.109-0.889
					c0-1.469-0.966-2.804-2.454-3.219c-1.777-0.491-3.628,0.554-4.113,2.335l-9.938,35.962c-0.367,1.32,0.118,2.752,1.23,3.57
					c1.112,0.82,2.622,0.859,3.79,0.127c0,0,28.521-18.156,31.766-20.219c3.213,2.078,31.263,20.168,31.263,20.168
					c1.161,0.744,2.643,0.711,3.769-0.092c0.877-0.643,1.394-1.652,1.394-2.709c0-0.275-0.046-0.566-0.116-0.83
					c0,0-8.328-32.48-9.261-36.148c2.901-2.42,28.711-23.854,28.711-23.854c0.771-0.648,1.21-1.593,1.21-2.566
					c0-0.357-0.059-0.702-0.175-1.044c-0.418-1.304-1.603-2.21-2.975-2.29c0,0-33.305-1.911-37.142-2.137
					c-1.405-3.574-13.597-34.91-13.597-34.91C388.952,326.301,387.709,325.459,386.34,325.459L386.34,325.459z"/>
			</g>
		</g>
	</g>
	<polygon fill="#FFFFFF" points="448.231,478.246 448.231,541.506 165.178,541.506 165.178,478.246 158.214,478.246 
		158.214,541.506 158.214,548.471 165.178,548.471 448.231,548.471 455.188,548.471 455.198,548.471 455.198,478.246 	"/>
	<g>
		<path fill="#FFFFFF" d="M177.386,527.576v-35.4h18.239v3.926h-13.73v11.375h12.749v3.926h-12.749v12.252h14.024v3.922
			L177.386,527.576L177.386,527.576z"/>
		<path fill="#FFFFFF" d="M225.839,492.176v35.4h-6.18l-13.971-30.689h-0.099v30.689h-4.021v-35.4h6.371l13.781,30.303h0.095
			v-30.303H225.839z"/>
		<path fill="#FFFFFF" d="M232.096,527.576v-35.4h18.242v3.926h-13.73v11.375h12.749v3.926h-12.749v12.252h14.023v3.922
			L232.096,527.576L232.096,527.576z"/>
		<path fill="#FFFFFF" d="M260.571,496.102h6.818c3.477,0,4.756,2.84,4.756,5.391c0,3.096-1.57,5.885-4.81,5.885h-6.765v-11.276
			H260.571z M265.864,511.303c1.525,0,5.002,0.191,5.345,4.51c0.393,4.705,0.102,9.318,1.376,11.764h4.708
			c-0.691-2.197-1.18-7.748-1.229-9.266c-0.242-7.113-1.709-8.477-5.783-9.117v-0.102c4.164-0.734,6.471-3.916,6.471-8.086
			c0-4.412-2.205-8.83-8.486-8.83h-12.205v35.4h4.511v-16.273L265.864,511.303L265.864,511.303z"/>
		<path fill="#FFFFFF" d="M298.594,501.643c0-4.174-1.714-6.426-6.281-6.426c-1.42,0-6.517,0.244-6.517,7.652v11.965
			c0,7.748,2.256,9.705,6.517,9.705c3.241,0,5.396-0.885,6.333-1.568v-10.592h-6.524v-3.922h11.033v17.215
			c-2.895,1.568-6.274,2.646-10.842,2.646c-7.497,0-11.127-3.883-11.127-13.686v-11.619c0-7.059,3.63-11.572,11.127-11.572
			c7.656,0,11.286,2.795,10.987,10.201L298.594,501.643L298.594,501.643z"/>
		<path fill="#FFFFFF" d="M324.763,492.176h4.558l-9.653,21.91v13.49h-4.507v-13.49l-9.518-21.91h5.053l6.912,17.111
			L324.763,492.176z"/>
		<path fill="#FFFFFF" d="M344.559,517.035v1.027c0,4.809,3.047,6.33,5.937,6.33c3.581,0,6.325-1.521,6.325-5.738
			c0-7.844-15.89-6.957-15.89-17.605c0-6.271,4.463-9.607,10.404-9.607c6.471,0,10.101,3.139,9.8,10.35h-4.706
			c0.047-3.879-1.177-6.428-5.438-6.428c-2.702,0-5.443,1.371-5.443,5.199c0,7.795,15.889,6.672,15.889,17.895
			c0,7.453-5.152,9.861-10.991,9.861c-10.443,0.09-10.443-7.898-10.344-11.283h4.457V517.035z"/>
		<path fill="#FFFFFF" d="M386.609,492.176v3.926h-9.314v31.475h-4.514v-31.475h-9.315v-3.926L386.609,492.176L386.609,492.176z"/>
		<path fill="#FFFFFF" d="M402.524,515.225H391.2l5.536-18.877h0.097L402.524,515.225z M382.867,527.576h4.556l2.651-8.436h13.682
			l2.544,8.436h5.051l-11.521-35.4h-5.738L382.867,527.576z"/>
		<path fill="#FFFFFF" d="M419.339,496.102h6.815c3.481,0,4.756,2.84,4.756,5.391c0,3.096-1.578,5.885-4.807,5.885h-6.765v-11.276
			H419.339z M424.632,511.303c1.522,0,5.004,0.191,5.347,4.51c0.391,4.705,0.097,9.318,1.376,11.764h4.701
			c-0.688-2.197-1.168-7.748-1.219-9.266c-0.243-7.113-1.72-8.477-5.789-9.117v-0.102c4.159-0.734,6.466-3.916,6.466-8.086
			c0-4.412-2.204-8.83-8.48-8.83h-12.208v35.4h4.514v-16.273L424.632,511.303L424.632,511.303z"/>
	</g>
</g>
</svg>
